# Blender v2.80 (sub 75) OBJ File: 'Chest_gold.blend'
# www.blender.org
mtllib Chest_gold1.mtl
o ChestBottom_Cube.024
v -0.306810 0.312866 -0.157858
v -0.306810 0.312866 0.167719
v 0.316897 0.311527 -0.157858
v 0.316897 0.311527 0.167719
v -0.306810 0.311546 -0.092743
v -0.306810 0.318591 -0.027627
v -0.306810 0.318591 0.037488
v -0.306810 0.311546 0.102603
v 0.316897 0.311527 0.102603
v 0.316897 0.311527 0.037488
v 0.316897 0.311527 -0.027627
v 0.316897 0.311527 -0.092742
v 0.254526 0.312471 -0.157858
v 0.192155 0.319377 -0.157858
v 0.129785 0.323493 -0.157858
v 0.067475 0.324004 -0.158408
v 0.004767 0.346014 -0.160104
v -0.058856 0.357325 -0.160162
v -0.120437 0.341798 -0.159850
v -0.182173 0.324204 -0.158239
v -0.244480 0.315631 -0.157885
v -0.244480 0.315631 0.167745
v -0.182122 0.322599 0.167929
v -0.120137 0.333561 0.168903
v -0.058315 0.347718 0.169210
v 0.004905 0.337979 0.169057
v 0.067443 0.322371 0.168019
v 0.129785 0.323493 0.167719
v 0.192155 0.319377 0.167719
v 0.254526 0.312471 0.167719
v -0.244870 0.326153 -0.093011
v -0.184136 0.355128 -0.094299
v -0.120459 0.345121 -0.094520
v -0.058162 0.353812 -0.094237
v 0.004705 0.357112 -0.094520
v 0.068217 0.369982 -0.095692
v 0.130658 0.339872 -0.093786
v 0.192155 0.314947 -0.092743
v 0.254526 0.318415 -0.092743
v -0.244440 0.311849 -0.027627
v -0.184318 0.343435 -0.028218
v -0.121167 0.369186 -0.029053
v -0.058181 0.373667 -0.028347
v 0.004620 0.373973 -0.028401
v 0.067766 0.368247 -0.028475
v 0.131472 0.356846 -0.028490
v 0.193100 0.336862 -0.028165
v 0.254526 0.315456 -0.027627
v -0.244440 0.311849 0.037488
v -0.184819 0.349384 0.038370
v -0.121247 0.369708 0.039186
v -0.058173 0.370762 0.038582
v 0.004613 0.373865 0.038441
v 0.067832 0.371754 0.038548
v 0.131347 0.356335 0.038384
v 0.193065 0.336581 0.038008
v 0.254526 0.315456 0.037488
v -0.244869 0.326141 0.102872
v -0.183721 0.351773 0.104114
v -0.120432 0.344864 0.104474
v -0.058191 0.351827 0.104032
v 0.004779 0.357211 0.104685
v 0.068168 0.368934 0.105640
v 0.130522 0.337958 0.103458
v 0.192155 0.314947 0.102603
v 0.254526 0.318415 0.102603
v -0.290318 0.059181 -0.149841
v -0.259100 0.059062 -0.183898
v -0.249114 0.005063 -0.143665
v -0.337042 0.289262 -0.181516
v -0.322283 0.372300 -0.189095
v -0.310162 0.289382 -0.215602
v -0.290318 0.059181 0.115261
v -0.249114 0.005063 0.104863
v -0.258670 0.057884 0.150348
v -0.322283 0.372300 0.189095
v -0.337042 0.289262 0.161370
v -0.310790 0.293517 0.197730
v -0.283482 0.372300 -0.147464
v -0.283482 0.372300 0.147464
v -0.214033 0.023608 -0.111204
v -0.214033 0.023608 0.111204
v -0.252132 0.289382 -0.215602
v -0.196271 0.005063 -0.143665
v -0.261985 0.372300 0.189095
v -0.204039 0.057884 0.150348
v -0.230444 0.372300 0.147464
v -0.173988 0.023608 0.111204
v -0.261985 0.372300 -0.189095
v -0.204389 0.059062 -0.183898
v -0.252642 0.293517 0.197730
v -0.196271 0.005063 0.104863
v -0.230444 0.372300 -0.147464
v -0.173988 0.023608 -0.111204
v -0.259100 0.060541 -0.196280
v -0.249114 0.005063 -0.153187
v -0.322283 0.372300 -0.201846
v -0.310162 0.290861 -0.230237
v -0.249114 0.005063 0.113006
v -0.258670 0.057884 0.161724
v -0.310790 0.293517 0.213370
v -0.322283 0.372300 0.203225
v -0.252132 0.290861 -0.230237
v -0.196271 0.005063 -0.153187
v -0.261985 0.372300 0.203225
v -0.204039 0.057884 0.161724
v -0.261985 0.372300 -0.201846
v -0.204389 0.060541 -0.196280
v -0.252642 0.293517 0.213370
v -0.196271 0.005063 0.113006
v -0.038079 0.292261 0.211694
v -0.038079 0.371035 0.202830
v -0.021597 0.308725 0.209798
v -0.021597 0.354480 0.204649
v -0.021597 0.308725 0.219300
v -0.021597 0.354480 0.214151
v -0.006713 0.318366 0.218189
v -0.006713 0.344785 0.215216
v -0.006713 0.318366 0.211143
v -0.006713 0.344785 0.208170
v 0.290318 0.059181 -0.149841
v 0.259100 0.059062 -0.183898
v 0.249114 0.005063 -0.143665
v 0.337042 0.289262 -0.181516
v 0.322283 0.372300 -0.189095
v 0.310162 0.289382 -0.215602
v 0.290318 0.059181 0.115261
v 0.249114 0.005063 0.104863
v 0.258670 0.057884 0.150348
v 0.322283 0.372300 0.189095
v 0.337042 0.289262 0.161370
v 0.310790 0.293517 0.197730
v 0.283482 0.372300 -0.147464
v 0.283482 0.372300 0.147464
v 0.214033 0.023608 -0.111204
v 0.214033 0.023608 0.111204
v 0.252132 0.289382 -0.215602
v 0.196271 0.005063 -0.143665
v 0.261985 0.372300 0.189095
v 0.204039 0.057884 0.150348
v 0.230444 0.372300 0.147464
v 0.173988 0.023608 0.111204
v 0.261985 0.372300 -0.189095
v 0.204389 0.059062 -0.183898
v 0.252642 0.293517 0.197730
v 0.196271 0.005063 0.104863
v 0.230444 0.372300 -0.147464
v 0.173988 0.023608 -0.111204
v 0.259100 0.060541 -0.196280
v 0.249114 0.005063 -0.153187
v 0.322283 0.372300 -0.201846
v 0.310162 0.290861 -0.230237
v 0.249114 0.005063 0.113006
v 0.258670 0.057884 0.161724
v 0.310790 0.293517 0.213371
v 0.322283 0.372300 0.203225
v 0.252132 0.290861 -0.230237
v 0.196271 0.005063 -0.153187
v 0.261985 0.372300 0.203225
v 0.204039 0.057884 0.161724
v 0.261985 0.372300 -0.201846
v 0.204389 0.060541 -0.196280
v 0.252642 0.293517 0.213371
v 0.196271 0.005063 0.113006
v 0.038079 0.292261 0.211694
v 0.038079 0.371035 0.202830
v 0.021597 0.308725 0.209798
v 0.021597 0.354480 0.204649
v 0.021597 0.308725 0.219300
v 0.021597 0.354480 0.214151
v 0.006713 0.318366 0.218189
v 0.006713 0.344785 0.215216
v 0.006713 0.318366 0.211143
v 0.006713 0.344785 0.208170
vn 0.0000 1.0000 -0.0000
vn -0.9800 -0.1990 0.0000
vn -0.6221 -0.5385 -0.5684
vn -0.7827 0.0828 -0.6169
vn -0.6185 -0.5740 0.5367
vn -0.8067 -0.0532 0.5886
vn -0.7145 -0.2484 -0.6541
vn -0.7609 -0.2855 0.5828
vn -0.9846 0.1750 0.0000
vn -0.7956 -0.6058 0.0000
vn 0.0000 0.1034 0.9946
vn 0.9807 0.1953 0.0000
vn -0.0000 -0.6525 0.7578
vn 0.0000 -1.0000 0.0000
vn 0.0000 0.1034 -0.9946
vn 0.0000 -0.1364 -0.9907
vn 0.0000 0.3045 -0.9525
vn 0.0000 -0.1971 0.9804
vn 0.0000 -0.5975 -0.8019
vn 0.9800 -0.1990 0.0000
vn 0.6221 -0.5385 -0.5684
vn 0.7827 0.0828 -0.6169
vn 0.6185 -0.5740 0.5367
vn 0.8067 -0.0532 0.5886
vn 0.7623 -0.2377 -0.6020
vn 0.7191 -0.2740 0.6386
vn 0.9846 0.1750 0.0000
vn 0.7956 -0.6058 0.0000
vn -0.9807 0.1953 0.0000
vn -0.7623 -0.2377 -0.6020
vn -0.7191 -0.2740 0.6386
vn 0.7145 -0.2484 -0.6541
vn 0.7609 -0.2855 0.5828
vn 0.9894 0.1455 0.0000
vn 0.9871 0.1592 0.0190
vn 0.0000 -0.9960 -0.0896
vn 0.9930 0.1180 0.0000
vn -0.9764 -0.2160 0.0000
vn 0.0000 -0.2141 0.9768
vn 0.0000 -0.6134 -0.7897
vn 0.0000 0.1277 0.9918
vn 0.0000 0.3292 -0.9443
vn 0.0000 -0.6780 0.7351
vn 0.0000 -0.1459 -0.9893
vn -0.9897 -0.1423 -0.0144
vn -0.9752 -0.2198 -0.0263
vn 0.9784 0.2059 0.0208
vn 0.9794 0.2020 0.0000
vn -0.9840 -0.1780 -0.0000
vn -0.9895 -0.1444 0.0000
vn -0.9833 -0.1818 0.0000
vn 0.0084 0.1118 0.9937
vn 0.0000 0.1093 0.9940
vn 0.0000 0.1144 0.9934
vn 0.0026 0.1118 0.9937
vn 0.0000 0.9958 0.0917
vn -0.9894 0.1455 0.0000
vn -0.9889 0.1487 0.0000
vn -0.9930 0.1180 0.0000
vn 0.9764 -0.2160 -0.0000
vn 0.9895 -0.1446 -0.0000
vn 0.9752 -0.2198 -0.0263
vn -0.9782 0.2062 0.0246
vn -0.9794 0.2020 0.0000
vn 0.9840 -0.1780 0.0000
vn 0.9895 -0.1444 0.0000
vn 0.9833 -0.1818 0.0000
vn -0.0025 0.1280 0.9918
vn -0.0026 0.1118 0.9937
vn 0.9889 0.1487 0.0000
vn 0.0059 -1.0000 0.0000
vn -0.0059 -1.0000 0.0000
vn 0.9932 0.1161 0.0117
vn -0.9895 -0.1446 -0.0000
vn -0.9754 -0.2195 -0.0222
vn 0.9782 0.2062 0.0246
vn -0.9806 -0.1946 -0.0232
vn 0.0025 0.1280 0.9918
vn -0.0056 1.0000 0.0000
vn 0.0056 1.0000 0.0000
vn -0.9871 0.1592 0.0190
vn -0.9932 0.1161 0.0117
vn 0.9897 -0.1423 -0.0144
vn 0.9754 -0.2195 -0.0222
vn -0.9784 0.2059 0.0208
vn 0.9806 -0.1946 -0.0232
vn -0.0084 0.1118 0.9937
vn 0.0000 0.1118 0.9937
vn -1.0000 0.0000 0.0000
vn 0.0017 0.1118 0.9937
vn 1.0000 -0.0000 0.0000
vn -0.0017 0.1118 0.9937
vn 0.1093 0.9899 0.0904
vn 0.0151 0.9999 0.0000
vn 0.1097 0.9929 0.0451
vn 0.0629 0.9980 0.0000
vn 0.1068 0.9885 0.1070
vn -0.5216 0.8328 -0.1855
vn -0.3040 0.9522 -0.0295
vn -0.0134 0.9605 0.2779
vn -0.0473 0.9687 0.2437
vn 0.0320 0.9693 0.2436
vn 0.2358 0.9710 0.0396
vn 0.2955 0.9184 0.2631
vn 0.3118 0.8996 0.3057
vn 0.1075 0.9942 0.0000
vn -0.4651 0.8853 0.0000
vn -0.3772 0.9222 -0.0852
vn -0.0714 0.9965 0.0433
vn -0.0049 1.0000 0.0016
vn 0.0901 0.9946 -0.0521
vn 0.1762 0.9843 0.0079
vn 0.3084 0.9512 0.0078
vn 0.3290 0.9443 0.0042
vn -0.2236 0.9519 0.2097
vn -0.4226 0.8927 0.1568
vn 0.1449 0.9292 -0.3400
vn -0.1282 0.9304 -0.3434
vn -0.0515 0.9562 -0.2881
vn -0.1981 0.9799 0.0240
vn 0.4282 0.8733 -0.2324
vn 0.3622 0.8810 -0.3043
vn -0.0555 0.9974 0.0453
vn -0.0443 0.9988 0.0203
vn -0.1355 0.9779 -0.1594
vn -0.2749 0.9602 -0.0489
vn -0.2444 0.9684 -0.0493
vn 0.1728 0.9712 -0.1642
vn 0.2861 0.7712 -0.5687
vn 0.0101 0.9688 -0.2478
vn 0.0657 0.9955 0.0677
vn 0.1096 0.9899 -0.0904
vn -0.2271 0.9611 0.1571
vn -0.3620 0.8443 0.3951
vn 0.0966 0.9061 0.4118
vn -0.1105 0.9919 0.0623
vn -0.0857 0.9944 0.0625
vn -0.1786 0.9427 0.2820
vn 0.3856 0.7372 0.5548
vn 0.3445 0.9150 0.2099
vn -0.0554 0.9962 -0.0678
vn 0.1093 0.9899 -0.0904
vn 0.1097 0.9929 -0.0451
vn -0.2234 0.9519 -0.2095
vn -0.3860 0.9221 -0.0271
vn 0.0996 0.9304 0.3528
vn -0.1015 0.9294 0.3549
vn -0.0847 0.9572 0.2769
vn -0.1823 0.9823 0.0422
vn 0.4378 0.8638 0.2495
vn 0.3370 0.8913 0.3033
vn -0.0555 0.9974 -0.0453
vn -0.5303 0.8441 -0.0794
vn -0.3044 0.9525 -0.0076
vn -0.0168 0.9998 -0.0077
vn -0.0492 0.9978 0.0433
vn 0.0334 0.9994 0.0016
vn 0.2355 0.9705 -0.0510
vn 0.3049 0.9524 0.0042
vn 0.3251 0.9457 0.0000
vn 0.1068 0.9885 -0.1070
vn -0.4548 0.8694 0.1932
vn -0.3708 0.9147 0.1608
vn -0.0647 0.9555 -0.2879
vn -0.0049 0.9690 -0.2471
vn 0.0872 0.9653 -0.2461
vn 0.1761 0.9840 0.0266
vn 0.3003 0.9222 -0.2435
vn 0.3154 0.8972 -0.3091
vn -0.2273 0.9610 -0.1572
vn -0.4000 0.8202 -0.4090
vn 0.1389 0.8932 -0.4277
vn -0.1382 0.9889 0.0541
vn -0.0521 0.9972 0.0537
vn -0.1988 0.9663 -0.1637
vn 0.3761 0.7451 -0.5507
vn 0.3685 0.8994 -0.2350
vn -0.0554 0.9962 0.0678
vn -0.0443 0.9988 -0.0203
vn -0.1101 0.9810 0.1596
vn -0.1742 0.9698 0.1709
vn -0.2208 0.9605 0.1695
vn 0.1467 0.9479 0.2829
vn 0.2052 0.7832 0.5870
vn -0.0165 0.9755 0.2194
vn 0.0657 0.9955 -0.0677
vn 0.1096 0.9899 0.0904
usemtl Wood
s off
f 89//1 79//1 93//1
f 70//2 73//2 77//2
f 67//3 68//3 69//3
f 70//4 71//4 72//4
f 73//5 74//5 75//5
f 76//6 77//6 78//6
f 67//7 72//7 68//7
f 89//1 97//1 71//1
f 77//8 75//8 78//8
f 71//9 77//9 76//9
f 74//10 67//10 69//10
f 93//11 81//11 94//11
f 76//1 79//1 71//1
f 80//12 81//12 79//12
f 148//1 88//1 142//1
f 141//1 85//1 139//1
f 148//11 93//11 94//11
f 140//13 92//13 146//13
f 147//1 89//1 93//1
f 84//14 74//14 69//14
f 85//1 80//1 76//1
f 88//1 81//1 82//1
f 87//15 82//15 80//15
f 144//16 83//16 137//16
f 143//17 83//17 89//17
f 140//18 91//18 86//18
f 146//14 84//14 138//14
f 92//14 99//14 74//14
f 144//19 84//19 90//19
f 143//1 133//1 125//1
f 127//20 124//20 131//20
f 121//21 123//21 122//21
f 124//22 126//22 125//22
f 127//23 129//23 128//23
f 130//24 132//24 131//24
f 121//25 126//25 124//25
f 151//1 143//1 125//1
f 131//26 129//26 127//26
f 131//27 125//27 130//27
f 121//28 128//28 123//28
f 147//11 135//11 133//11
f 133//1 130//1 125//1
f 135//29 134//29 133//29
f 128//14 138//14 123//14
f 134//1 139//1 130//1
f 135//1 142//1 136//1
f 136//15 141//15 134//15
f 153//14 146//14 128//14
f 142//15 87//15 141//15
f 89//1 71//1 79//1
f 70//2 67//2 73//2
f 67//30 70//30 72//30
f 89//1 107//1 97//1
f 77//31 73//31 75//31
f 71//9 70//9 77//9
f 74//10 73//10 67//10
f 93//11 79//11 81//11
f 76//1 80//1 79//1
f 80//12 82//12 81//12
f 148//1 94//1 88//1
f 141//1 87//1 85//1
f 148//11 147//11 93//11
f 140//13 86//13 92//13
f 147//1 143//1 89//1
f 84//14 92//14 74//14
f 85//1 87//1 80//1
f 88//1 94//1 81//1
f 87//15 88//15 82//15
f 144//16 90//16 83//16
f 143//17 137//17 83//17
f 140//18 145//18 91//18
f 146//14 92//14 84//14
f 92//14 110//14 99//14
f 144//19 138//19 84//19
f 143//1 147//1 133//1
f 127//20 121//20 124//20
f 121//32 122//32 126//32
f 151//1 161//1 143//1
f 131//33 132//33 129//33
f 131//27 124//27 125//27
f 121//28 127//28 128//28
f 147//11 148//11 135//11
f 133//1 134//1 130//1
f 135//29 136//29 134//29
f 128//14 146//14 138//14
f 134//1 141//1 139//1
f 135//1 148//1 142//1
f 136//15 142//15 141//15
f 153//14 164//14 146//14
f 142//15 88//15 87//15
usemtl Steel
f 86//34 110//34 92//34
f 90//35 104//35 108//35
f 165//36 111//36 91//36
f 83//37 107//37 89//37
f 78//38 100//38 101//38
f 109//39 100//39 106//39
f 96//40 108//40 104//40
f 105//41 101//41 109//41
f 107//42 98//42 97//42
f 99//43 106//43 100//43
f 103//44 95//44 98//44
f 72//45 97//45 98//45
f 72//46 95//46 68//46
f 83//47 108//47 103//47
f 91//48 106//48 86//48
f 69//14 104//14 84//14
f 75//49 99//49 100//49
f 76//1 105//1 85//1
f 78//50 102//50 76//50
f 68//51 96//51 69//51
f 112//52 109//52 111//52
f 168//53 112//53 114//53
f 167//54 111//54 165//54
f 111//55 114//55 112//55
f 112//56 166//56 139//56
f 164//57 140//57 146//57
f 144//58 158//58 138//58
f 161//59 137//59 143//59
f 132//60 154//60 129//60
f 163//39 154//39 155//39
f 162//40 150//40 158//40
f 159//41 155//41 156//41
f 152//42 161//42 151//42
f 153//43 160//43 164//43
f 149//44 157//44 152//44
f 126//61 151//61 125//61
f 149//62 126//62 122//62
f 137//63 162//63 144//63
f 160//64 145//64 140//64
f 158//14 123//14 138//14
f 129//65 153//65 128//65
f 159//1 130//1 139//1
f 156//66 132//66 130//66
f 150//67 122//67 123//67
f 166//68 163//68 159//68
f 168//69 165//69 166//69
f 86//34 106//34 110//34
f 90//70 84//70 104//70
f 91//36 145//36 165//36
f 145//71 163//71 165//71
f 111//72 109//72 91//72
f 83//73 103//73 107//73
f 78//38 75//38 100//38
f 109//39 101//39 100//39
f 96//40 95//40 108//40
f 105//41 102//41 101//41
f 107//42 103//42 98//42
f 99//43 110//43 106//43
f 103//44 108//44 95//44
f 72//74 71//74 97//74
f 72//75 98//75 95//75
f 83//76 90//76 108//76
f 91//48 109//48 106//48
f 69//14 96//14 104//14
f 75//49 74//49 99//49
f 76//1 102//1 105//1
f 78//50 101//50 102//50
f 68//77 95//77 96//77
f 112//78 105//78 109//78
f 168//53 166//53 112//53
f 167//54 113//54 111//54
f 111//55 113//55 114//55
f 166//79 159//79 139//79
f 139//56 85//56 112//56
f 85//80 105//80 112//80
f 164//57 160//57 140//57
f 144//81 162//81 158//81
f 161//82 157//82 137//82
f 132//60 155//60 154//60
f 163//39 160//39 154//39
f 162//40 149//40 150//40
f 159//41 163//41 155//41
f 152//42 157//42 161//42
f 153//43 154//43 160//43
f 149//44 162//44 157//44
f 126//83 152//83 151//83
f 149//84 152//84 126//84
f 137//85 157//85 162//85
f 160//64 163//64 145//64
f 158//14 150//14 123//14
f 129//65 154//65 153//65
f 159//1 156//1 130//1
f 156//66 155//66 132//66
f 150//86 149//86 122//86
f 166//87 165//87 163//87
f 168//69 167//69 165//69
usemtl DarkSteel
f 173//88 120//88 119//88
f 169//14 113//14 167//14
f 170//1 114//1 116//1
f 171//54 115//54 169//54
f 113//89 116//89 114//89
f 172//53 116//53 118//53
f 173//1 117//1 171//1
f 115//90 118//90 116//90
f 174//14 118//14 120//14
f 118//91 119//91 120//91
f 170//91 167//91 168//91
f 172//92 169//92 170//92
f 172//89 173//89 171//89
f 173//88 174//88 120//88
f 169//14 115//14 113//14
f 170//1 168//1 114//1
f 171//54 117//54 115//54
f 113//89 115//89 116//89
f 172//53 170//53 116//53
f 173//1 119//1 117//1
f 115//90 117//90 118//90
f 174//14 172//14 118//14
f 118//91 117//91 119//91
f 170//91 169//91 167//91
f 172//92 171//92 169//92
f 172//89 174//89 173//89
usemtl Gold
f 30//93 9//93 66//93
f 13//94 12//94 3//94
f 48//95 12//95 39//95
f 57//96 11//96 48//96
f 57//96 9//96 10//96
f 8//97 49//97 7//97
f 58//98 50//98 49//98
f 59//99 51//99 50//99
f 51//100 61//100 52//100
f 52//101 62//101 53//101
f 62//102 54//102 53//102
f 63//103 55//103 54//103
f 64//104 56//104 55//104
f 65//105 57//105 56//105
f 7//106 40//106 6//106
f 49//107 41//107 40//107
f 50//108 42//108 41//108
f 42//109 52//109 43//109
f 43//110 53//110 44//110
f 44//111 54//111 45//111
f 45//112 55//112 46//112
f 55//113 47//113 46//113
f 56//114 48//114 47//114
f 5//115 40//115 31//115
f 31//116 41//116 32//116
f 32//117 42//117 33//117
f 42//118 34//118 33//118
f 43//119 35//119 34//119
f 35//120 45//120 36//120
f 36//121 46//121 37//121
f 37//122 47//122 38//122
f 38//123 48//123 39//123
f 5//124 21//124 1//124
f 31//125 20//125 21//125
f 20//126 33//126 19//126
f 33//127 18//127 19//127
f 18//128 35//128 17//128
f 17//129 36//129 16//129
f 16//130 37//130 15//130
f 15//131 38//131 14//131
f 14//132 39//132 13//132
f 8//133 22//133 58//133
f 58//134 23//134 59//134
f 23//135 60//135 59//135
f 60//136 25//136 61//136
f 25//137 62//137 61//137
f 26//138 63//138 62//138
f 27//139 64//139 63//139
f 28//140 65//140 64//140
f 29//141 66//141 65//141
f 30//94 4//94 9//94
f 13//142 39//142 12//142
f 48//96 11//96 12//96
f 57//96 10//96 11//96
f 57//143 66//143 9//143
f 8//144 58//144 49//144
f 58//145 59//145 50//145
f 59//146 60//146 51//146
f 51//147 60//147 61//147
f 52//148 61//148 62//148
f 62//149 63//149 54//149
f 63//150 64//150 55//150
f 64//151 65//151 56//151
f 65//152 66//152 57//152
f 7//106 49//106 40//106
f 49//153 50//153 41//153
f 50//154 51//154 42//154
f 42//155 51//155 52//155
f 43//156 52//156 53//156
f 44//157 53//157 54//157
f 45//158 54//158 55//158
f 55//159 56//159 47//159
f 56//160 57//160 48//160
f 5//161 6//161 40//161
f 31//162 40//162 41//162
f 32//163 41//163 42//163
f 42//164 43//164 34//164
f 43//165 44//165 35//165
f 35//166 44//166 45//166
f 36//167 45//167 46//167
f 37//168 46//168 47//168
f 38//169 47//169 48//169
f 5//170 31//170 21//170
f 31//171 32//171 20//171
f 20//172 32//172 33//172
f 33//173 34//173 18//173
f 18//174 34//174 35//174
f 17//175 35//175 36//175
f 16//176 36//176 37//176
f 15//177 37//177 38//177
f 14//178 38//178 39//178
f 8//179 2//179 22//179
f 58//180 22//180 23//180
f 23//181 24//181 60//181
f 60//182 24//182 25//182
f 25//183 26//183 62//183
f 26//184 27//184 63//184
f 27//185 28//185 64//185
f 28//186 29//186 65//186
f 29//187 30//187 66//187
o ChestTop_Cylinder.018
v -0.315901 0.637505 0.099905
v -0.276465 0.413755 -0.139916
v -0.276465 0.609921 0.070339
v -0.315901 0.386170 -0.169482
v -0.315901 0.518381 -0.219042
v -0.315901 0.646759 -0.160669
v -0.315901 0.696102 -0.028557
v -0.276465 0.483021 -0.165965
v -0.276465 0.640704 0.003042
v -0.276465 0.571584 -0.167523
v -0.276465 0.648391 -0.085200
v -0.266130 0.637505 0.099905
v -0.232835 0.609921 0.070339
v -0.232835 0.640704 0.003042
v -0.232835 0.648391 -0.085200
v -0.232835 0.413755 -0.139916
v -0.266130 0.386170 -0.169482
v -0.266130 0.518381 -0.219042
v -0.266130 0.646759 -0.160669
v -0.266130 0.696102 -0.028557
v -0.232835 0.483021 -0.165965
v -0.232835 0.571584 -0.167523
v -0.263703 0.649767 0.113037
v -0.318329 0.649767 0.113037
v -0.318329 0.519025 -0.237019
v -0.318329 0.373918 -0.182624
v -0.318329 0.659924 -0.172952
v -0.318329 0.714080 -0.027954
v -0.263703 0.373918 -0.182624
v -0.263703 0.519025 -0.237019
v -0.263703 0.659924 -0.172952
v -0.263703 0.714080 -0.027954
v 0.323332 0.637505 0.099904
v 0.283895 0.413754 -0.139917
v 0.283896 0.609921 0.070339
v 0.323331 0.386170 -0.169482
v 0.323331 0.518381 -0.219042
v 0.323332 0.646759 -0.160670
v 0.323332 0.696102 -0.028557
v 0.283895 0.483021 -0.165965
v 0.283896 0.640704 0.003042
v 0.283895 0.571584 -0.167523
v 0.283895 0.648391 -0.085200
v 0.273560 0.637505 0.099905
v 0.240265 0.609921 0.070339
v 0.240265 0.640704 0.003042
v 0.240265 0.648391 -0.085200
v 0.240265 0.413754 -0.139916
v 0.273560 0.386170 -0.169482
v 0.273560 0.518381 -0.219042
v 0.273560 0.646759 -0.160670
v 0.273560 0.696102 -0.028557
v 0.240265 0.483021 -0.165965
v 0.240265 0.571584 -0.167523
v 0.271133 0.649767 0.113037
v 0.325759 0.649767 0.113037
v 0.325759 0.519025 -0.237019
v 0.325759 0.373918 -0.182624
v 0.325759 0.659924 -0.172952
v 0.325759 0.714079 -0.027954
v 0.271133 0.373918 -0.182624
v 0.271133 0.519025 -0.237019
v 0.271133 0.659924 -0.172952
v 0.271133 0.714079 -0.027954
vn -1.0000 0.0000 0.0000
vn 0.0000 -0.7312 0.6822
vn -0.0000 -0.9094 -0.4160
vn 1.0000 -0.0000 -0.0000
vn 0.0000 -0.9962 -0.0868
vn 0.0000 0.3520 0.9360
vn 0.0000 0.0176 0.9998
vn 0.0000 0.9368 -0.3499
vn 0.0000 0.9098 0.4150
vn -0.0000 0.4139 -0.9103
vn -0.0000 -0.3510 -0.9364
vn -0.9895 0.0508 0.1354
vn 0.9895 -0.0598 0.1315
vn -0.9895 -0.1316 -0.0600
vn 0.9895 -0.1316 -0.0600
vn 0.9895 0.0508 0.1354
vn -0.9895 -0.0598 0.1315
vn 0.9895 -0.1353 0.0505
vn -0.0000 -0.7309 0.6825
vn -0.9895 -0.1353 0.0505
vn 0.0000 -0.7314 0.6819
usemtl Wood
s off
f 181//188 179//188 178//188
f 178//189 177//189 175//189
f 186//189 177//189 187//189
f 177//190 188//190 187//190
f 176//191 183//191 177//191
f 188//192 185//192 189//192
f 182//191 185//191 183//191
f 196//189 185//189 184//189
f 221//192 188//192 189//192
f 220//190 187//190 188//190
f 191//189 176//189 178//189
f 190//193 182//193 176//193
f 182//194 196//194 184//194
f 227//194 196//194 195//194
f 227//193 190//193 222//193
f 219//189 186//189 187//189
f 226//195 193//195 194//195
f 218//196 194//196 186//196
f 225//197 192//197 193//197
f 224//198 191//198 192//198
f 222//189 191//189 223//189
f 211//191 212//191 213//191
f 209//189 210//189 207//189
f 218//189 209//189 207//189
f 220//190 209//190 219//190
f 215//188 208//188 209//188
f 220//192 217//192 215//192
f 215//188 216//188 214//188
f 228//189 217//189 221//189
f 208//189 223//189 210//189
f 214//193 222//193 208//193
f 216//194 227//194 214//194
f 228//189 189//189 196//189
f 178//188 175//188 181//188
f 181//188 180//188 179//188
f 178//189 176//189 177//189
f 186//189 175//189 177//189
f 177//190 183//190 188//190
f 176//191 182//191 183//191
f 188//192 183//192 185//192
f 182//191 184//191 185//191
f 196//189 189//189 185//189
f 221//192 220//192 188//192
f 220//190 219//190 187//190
f 191//189 190//189 176//189
f 190//193 195//193 182//193
f 182//194 195//194 196//194
f 227//194 228//194 196//194
f 227//193 195//193 190//193
f 219//189 218//189 186//189
f 226//195 225//195 193//195
f 218//196 226//196 194//196
f 225//197 224//197 192//197
f 224//198 223//198 191//198
f 222//189 190//189 191//189
f 213//191 207//191 210//191
f 210//191 211//191 213//191
f 209//189 208//189 210//189
f 218//189 219//189 209//189
f 220//190 215//190 209//190
f 215//188 214//188 208//188
f 220//192 221//192 217//192
f 215//188 217//188 216//188
f 228//189 216//189 217//189
f 208//189 222//189 223//189
f 214//193 227//193 222//193
f 216//194 228//194 227//194
f 228//189 221//189 189//189
usemtl Steel
f 179//199 200//199 178//199
f 193//200 204//200 205//200
f 181//201 198//201 202//201
f 194//202 197//202 186//202
f 200//198 204//198 203//198
f 204//197 201//197 205//197
f 202//196 197//196 206//196
f 201//195 206//195 205//195
f 192//203 203//203 204//203
f 180//204 199//204 179//204
f 193//205 206//205 194//205
f 175//206 197//206 198//206
f 180//207 202//207 201//207
f 191//208 200//208 203//208
f 232//203 211//203 210//203
f 225//204 236//204 224//204
f 213//202 230//202 207//202
f 229//201 226//201 218//201
f 236//198 232//198 235//198
f 237//197 231//197 236//197
f 229//196 234//196 238//196
f 238//195 233//195 237//195
f 224//199 235//199 223//199
f 231//200 212//200 211//200
f 238//207 225//207 226//207
f 230//206 218//206 207//206
f 212//205 234//205 213//205
f 235//208 210//208 223//208
f 179//199 199//199 200//199
f 193//200 192//200 204//200
f 181//201 175//201 198//201
f 194//202 206//202 197//202
f 200//198 199//198 204//198
f 204//197 199//197 201//197
f 202//196 198//196 197//196
f 201//195 202//195 206//195
f 192//203 191//203 203//203
f 180//204 201//204 199//204
f 193//205 205//205 206//205
f 175//206 186//206 197//206
f 180//207 181//207 202//207
f 191//208 178//208 200//208
f 232//203 231//203 211//203
f 225//204 237//204 236//204
f 213//202 234//202 230//202
f 229//201 238//201 226//201
f 236//198 231//198 232//198
f 237//197 233//197 231//197
f 229//196 230//196 234//196
f 238//195 234//195 233//195
f 224//199 236//199 235//199
f 231//200 233//200 212//200
f 238//207 237//207 225//207
f 230//206 229//206 218//206
f 212//205 233//205 234//205
f 235//208 232//208 210//208
